<svg height="480pt" viewBox="0 0 480 479" width="480pt" xmlns="http://www.w3.org/2000/svg"><path d="m56 8.5h288v352h-288zm0 0" fill="#f2b134"/><path d="m296 440.5h48v-40h-48zm0 0" fill="#efeadd"/><path d="m48 440.5h200v-40h96v-40h-296c-22.089844 0-40 17.910156-40 40s17.910156 40 40 40zm0 0" fill="#efeadd"/><path d="m248 400.5v64l24-16 24 16v-64zm0 0" fill="#ee2820"/><path d="m424 8.5c-26.507812 0-48 21.492188-48 48v16h96v-16c0-26.507812-21.492188-48-48-48zm0 0" fill="#efeadd"/><path d="m376 104.5h96v-32h-96zm0 0" fill="#808285"/><path d="m424 384.5-16-24-32 32 48 72 48-72-32-32zm0 0" fill="#808285"/><path d="m408 104.5h-32v288l32-32zm0 0" fill="#ff5023"/><path d="m424 384.5 16-24v-256h-32v256zm0 0" fill="#fa9028"/><path d="m440 360.5 32 32v-288h-32zm0 0" fill="#ff5023"/><path d="m8 56.5v344c-.03125-10.617188 4.171875-20.8125 11.679688-28.320312 7.507812-7.507813 17.703124-11.710938 28.320312-11.679688h8v-352c-26.507812 0-48 21.492188-48 48zm0 0" fill="#fa9028"/><path d="m104 56.5h192v96h-192zm0 0" fill="#254b6f"/><path d="m56 184.578125v175.921875h157.121094c-87.105469-1.695312-157.121094-79.703125-157.121094-175.921875zm0 0" fill="#da9f2f"/><g fill="#231f20"><path d="m56 .5c-30.914062.035156-55.9648438 25.085938-56 56v344c.0273438 26.5 21.5 47.972656 48 48h192v30.953125l32-21.351563 32 21.335938v-30.9375h48v-448zm-8 432c-17.671875 0-32-14.328125-32-32s14.328125-32 32-32h288v24h-296c-4.417969 0-8 3.582031-8 8s3.582031 8 8 8h200v24zm240 17.046875-16-10.648437-16 10.664062v-41.0625h32zm16-17.046875v-24h32v24zm-256-80c-11.8125 0-23.207031 4.363281-32 12.246094v-308.246094c.027344-22.082031 17.917969-39.972656 40-40h280v336zm0 0"/><path d="m56 32.5c-4.417969 0-8 3.582031-8 8v288c0 4.417969 3.582031 8 8 8s8-3.582031 8-8v-288c0-4.417969-3.582031-8-8-8zm0 0"/><path d="m96 48.5v112h208v-112zm192 96h-176v-80h176zm0 0"/><path d="m128 168.5h144v16h-144zm0 0"/><path d="m152 192.5h96v16h-96zm0 0"/><path d="m160 320.5h16v16h-16zm0 0"/><path d="m192 320.5h16v16h-16zm0 0"/><path d="m224 320.5h16v16h-16zm0 0"/><path d="m424 .5c-30.914062.035156-55.964844 25.085938-56 56v338.398438l56 84 56-84v-338.398438c-.035156-30.914062-25.085938-55.964844-56-56zm8 357.601562-8 12-8-12v-245.601562h16zm-32-.890624-16 16v-260.710938h16zm-13.703125 36.328124 20.464844-20.453124 17.238281 25.8125 17.238281-25.863282 20.464844 20.457032-37.703125 56.609374zm77.703125-20.351562-16-16v-244.6875h16zm0-276.6875h-80v-16h80zm-80-32v-8c0-22.089844 17.910156-40 40-40s40 17.910156 40 40v8zm0 0"/></g></svg>