<svg height="480pt" viewBox="-16 0 480 480" width="480pt" xmlns="http://www.w3.org/2000/svg"><path d="m426.238281 323.199219c-2.363281-4.140625-5.9375-7.460938-10.238281-9.519531-1.921875-.953126-3.96875-1.625-6.078125-2-5.617187-1.09375-11.441406-.128907-16.402344 2.71875l-37.441406 21.601562-55.4375 32-6.480469 3.761719c.078125-1.253907.078125-2.507813 0-3.761719-.898437-10.042969-7.953125-18.46875-17.679687-21.121094l-40.640625-10.878906-55.777344-14.910156c-2.695312-.722656-5.476562-1.089844-8.269531-1.089844h-50.863281c-5.792969 0-11.472657 1.570312-16.441407 4.542969l-32.488281 19.457031v96.160156l34.398438 13.601563c3.746093 1.476562 7.734374 2.238281 11.761718 2.238281h128.71875c5.953125 0 11.789063-1.664062 16.847656-4.800781l153.792969-95.199219c7.40625-4.304688 11.953125-12.234375 11.921875-20.800781-.011718-4.207031-1.113281-8.34375-3.203125-12zm0 0" fill="#ebe5dd"/><path d="m72 440.160156v-128.160156h-64v160h64zm0 0" fill="#005ece"/><path d="m136 160c.074219 83.917969 68.082031 151.925781 152 152v-304c-83.917969.074219-151.925781 68.082031-152 152zm0 0" fill="#ffb655"/><path d="m288 8v304c83.949219 0 152-68.050781 152-152s-68.050781-152-152-152zm0 0" fill="#ffc374"/><path d="m168 160c0 66.273438 53.726562 120 120 120v-240c-66.273438 0-120 53.726562-120 120zm0 0" fill="#ff9811"/><path d="m288 40v240c66.273438 0 120-53.726562 120-120s-53.726562-120-120-120zm0 0" fill="#ffa127"/><path d="m419.574219 306.519531c-2.574219-1.28125-5.320313-2.1875-8.148438-2.695312-7.503906-1.460938-15.28125-.164063-21.90625 3.648437l-89.28125 51.519532c-3.621093-9.710938-11.691406-17.09375-21.6875-19.839844l-96.414062-25.792969c-3.371094-.902344-6.847657-1.359375-10.335938-1.359375h-50.871093c-7.238282 0-14.34375 1.964844-20.554688 5.679688l-20.375 12.207031v-25.886719h-80v176h80v-28.070312l23.480469 9.269531c4.675781 1.855469 9.664062 2.804687 14.695312 2.800781h128.71875c7.441407 0 14.734375-2.074219 21.058594-5.992188l153.597656-95.097656c9.890625-5.710937 15.957031-16.289062 15.890625-27.710937-.003906-5.613281-1.472656-11.128907-4.265625-16-3.148437-5.503907-7.890625-9.921875-13.601562-12.679688zm-355.574219 157.480469h-48v-144h48zm349.3125-114.800781-153.785156 95.199219c-3.792969 2.355468-8.167969 3.605468-12.632813 3.601562h-128.71875c-3.011719-.003906-5.996093-.574219-8.800781-1.679688l-29.375-11.601562v-86.183594l28.601562-17.128906c3.722657-2.226562 7.984376-3.40625 12.328126-3.40625h50.871093c2.09375-.007812 4.175781.261719 6.199219.800781l96.398438 25.800781c6.433593 1.753907 11.125 7.285157 11.800781 13.917969.058593.917969.058593 1.835938 0 2.753907-.101563.996093-.253907 1.984374-.464844 2.964843-1.859375 6.917969-8.09375 11.753907-15.253906 11.839844-1.191407-.078125-5.894531-1.039063-9.273438-1.804687l-83.117187-22.242188-4.128906 15.457031 83.390624 22.3125c4.230469 1.125 8.550782 1.886719 12.914063 2.277344 14.488281-.015625 27.164063-9.742187 30.933594-23.734375.136719-.488281.136719-1 .242187-1.496094l96.101563-55.519531c3.316406-1.894531 7.207031-2.53125 10.953125-1.785156 1.410156.253906 2.78125.707031 4.0625 1.34375 2.820312 1.351562 5.167968 3.523437 6.730468 6.234375 1.414063 2.457031 2.164063 5.242187 2.175782 8.078125.019531 5.800781-3.097656 11.15625-8.152344 14zm0 0"/><path d="m288 216c-21.679688 0-40-10.992188-40-24h-16c0 20.480469 20.527344 36.863281 48 39.566406v24.433594h16v-24.433594c27.472656-2.703125 48-19.085937 48-39.566406 0-22.398438-24.601562-40-56-40-21.679688 0-40-10.992188-40-24s18.320312-24 40-24 40 10.992188 40 24h16c0-20.480469-20.527344-36.863281-48-39.566406v-24.433594h-16v24.433594c-27.472656 2.703125-48 19.085937-48 39.566406 0 22.398438 24.601562 40 56 40 21.679688 0 40 10.992188 40 24s-18.320312 24-40 24zm0 0"/><path d="m288 320c88.367188 0 160-71.632812 160-160s-71.632812-160-160-160-160 71.632812-160 160c.101562 88.324219 71.675781 159.898438 160 160zm0-304c79.527344 0 144 64.472656 144 144s-64.472656 144-144 144-144-64.472656-144-144c.09375-79.492188 64.507812-143.90625 144-144zm0 0"/><path d="m288 288c70.691406 0 128-57.308594 128-128s-57.308594-128-128-128-128 57.308594-128 128c.082031 70.65625 57.34375 127.917969 128 128zm0-240c61.855469 0 112 50.144531 112 112s-50.144531 112-112 112-112-50.144531-112-112c.066406-61.828125 50.171875-111.933594 112-112zm0 0"/></svg>