<svg height="511pt" viewBox="-33 0 511 511.99947" width="511pt" xmlns="http://www.w3.org/2000/svg"><path d="m317.765625 253.117188c0 52.136718-42.265625 94.398437-94.398437 94.398437-52.136719 0-94.398438-42.261719-94.398438-94.398437 0-52.132813 42.261719-94.394532 94.398438-94.394532 52.132812 0 94.398437 42.261719 94.398437 94.394532zm0 0" fill="#54a0ff"/><path d="m159.363281 253.117188c0-46.957032 34.292969-85.902344 79.203125-93.171876-4.949218-.800781-10.027344-1.222656-15.199218-1.222656-52.136719 0-94.398438 42.261719-94.398438 94.394532 0 52.136718 42.261719 94.398437 94.398438 94.398437 5.171874 0 10.25-.421875 15.199218-1.222656-44.910156-7.269531-79.203125-46.214844-79.203125-93.175781zm0 0" fill="#338def"/><path d="m251.402344 213.277344c0 15.480468-12.554688 28.035156-28.035156 28.035156-15.484376 0-28.035157-12.554688-28.035157-28.035156 0-15.484375 12.550781-28.035156 28.035157-28.035156 15.480468 0 28.035156 12.550781 28.035156 28.035156zm0 0" fill="#ffcdbf"/><path d="m239.230469 241.3125h-31.730469c-16.519531 0-30.035156 13.515625-30.035156 30.035156v34.796875c0 2.828125 2.289062 5.117188 5.113281 5.117188h81.574219c2.824218 0 5.117187-2.289063 5.117187-5.117188v-34.796875c0-16.519531-13.515625-30.035156-30.039062-30.035156zm0 0" fill="#feca57"/><path d="m197.695312 306.144531v-34.796875c0-16.519531 13.515626-30.035156 30.039063-30.035156h-20.234375c-16.519531 0-30.035156 13.515625-30.035156 30.035156v34.796875c0 2.828125 2.289062 5.117188 5.113281 5.117188h20.234375c-2.824219 0-5.117188-2.289063-5.117188-5.117188zm0 0" fill="#f4b537"/><path d="m420.566406 306.855469c0 15.480469-12.550781 28.03125-28.035156 28.03125s-28.035156-12.550781-28.035156-28.03125c0-15.484375 12.550781-28.035157 28.035156-28.035157s28.035156 12.550782 28.035156 28.035157zm0 0" fill="#ffcdbf"/><path d="m408.394531 334.886719h-31.730469c-16.519531 0-30.035156 13.519531-30.035156 30.039062v23.503907c0 2.824218 2.289063 5.117187 5.113282 5.117187h81.574218c2.824219 0 5.117188-2.289063 5.117188-5.117187v-23.503907c0-16.519531-13.515625-30.039062-30.039063-30.039062zm0 0" fill="#ff6b6b"/><path d="m366.859375 388.429688v-23.503907c0-16.519531 13.519531-30.039062 30.039063-30.039062h-20.234376c-16.519531 0-30.035156 13.519531-30.035156 30.039062v23.503907c0 2.824218 2.289063 5.117187 5.117188 5.117187h20.230468c-2.824218 0-5.117187-2.292969-5.117187-5.117187zm0 0" fill="#ee5253"/><path d="m82.238281 306.855469c0 15.480469-12.554687 28.03125-28.035156 28.03125-15.484375 0-28.035156-12.550781-28.035156-28.03125 0-15.484375 12.550781-28.035157 28.035156-28.035157 15.480469 0 28.035156 12.550782 28.035156 28.035157zm0 0" fill="#ffcdbf"/><path d="m70.066406 334.886719h-31.730468c-16.519532 0-30.035157 13.519531-30.035157 30.039062v23.503907c0 2.824218 2.289063 5.117187 5.113281 5.117187h81.574219c2.824219 0 5.117188-2.289063 5.117188-5.117187v-23.503907c0-16.519531-13.515625-30.039062-30.039063-30.039062zm0 0" fill="#ff6b6b"/><path d="m28.53125 388.429688v-23.503907c0-16.519531 13.515625-30.039062 30.039062-30.039062h-20.234374c-16.519532 0-30.035157 13.519531-30.035157 30.039062v23.503907c0 2.824218 2.289063 5.117187 5.113281 5.117187h20.234376c-2.828126 0-5.117188-2.292969-5.117188-5.117187zm0 0" fill="#ee5253"/><path d="m420.566406 130.328125c0 15.484375-12.550781 28.035156-28.035156 28.035156s-28.035156-12.550781-28.035156-28.035156c0-15.480469 12.550781-28.03125 28.035156-28.03125s28.035156 12.550781 28.035156 28.03125zm0 0" fill="#ffcdbf"/><path d="m408.394531 158.363281h-31.730469c-16.519531 0-30.035156 13.515625-30.035156 30.039063v23.503906c0 2.824219 2.289063 5.117188 5.113282 5.117188h81.574218c2.824219 0 5.117188-2.292969 5.117188-5.117188v-23.503906c0-16.523438-13.515625-30.039063-30.039063-30.039063zm0 0" fill="#ff6b6b"/><path d="m366.859375 211.90625v-23.503906c0-16.523438 13.519531-30.039063 30.039063-30.039063h-20.234376c-16.519531 0-30.035156 13.515625-30.035156 30.039063v23.503906c0 2.824219 2.289063 5.117188 5.117188 5.117188h20.230468c-2.824218 0-5.117187-2.292969-5.117187-5.117188zm0 0" fill="#ee5253"/><path d="m82.238281 130.328125c0 15.484375-12.554687 28.035156-28.035156 28.035156-15.484375 0-28.035156-12.550781-28.035156-28.035156 0-15.480469 12.550781-28.03125 28.035156-28.03125 15.480469 0 28.035156 12.550781 28.035156 28.03125zm0 0" fill="#ffcdbf"/><path d="m70.066406 158.363281h-31.730468c-16.519532 0-30.035157 13.515625-30.035157 30.039063v23.503906c0 2.824219 2.289063 5.117188 5.113281 5.117188h81.574219c2.824219 0 5.117188-2.292969 5.117188-5.117188v-23.503906c0-16.523438-13.515625-30.039063-30.039063-30.039063zm0 0" fill="#ff6b6b"/><path d="m28.53125 211.90625v-23.503906c0-16.523438 13.515625-30.039063 30.039062-30.039063h-20.234374c-16.519532 0-30.035157 13.515625-30.035157 30.039063v23.503906c0 2.824219 2.289063 5.117188 5.113281 5.117188h20.234376c-2.828126 0-5.117188-2.292969-5.117188-5.117188zm0 0" fill="#ee5253"/><path d="m251.402344 29.789062c0 15.480469-12.554688 28.035157-28.035156 28.035157-15.484376 0-28.035157-12.554688-28.035157-28.035157 0-15.484374 12.550781-28.035156 28.035157-28.035156 15.480468 0 28.035156 12.550782 28.035156 28.035156zm0 0" fill="#ffcdbf"/><path d="m239.230469 57.824219h-31.730469c-16.519531 0-30.035156 13.515625-30.035156 30.035156v23.503906c0 2.824219 2.289062 5.117188 5.113281 5.117188h81.574219c2.824218 0 5.117187-2.289063 5.117187-5.117188v-23.503906c0-16.519531-13.515625-30.035156-30.039062-30.035156zm0 0" fill="#ff6b6b"/><path d="m197.695312 111.363281v-23.503906c0-16.519531 13.515626-30.035156 30.039063-30.035156h-20.234375c-16.519531 0-30.035156 13.515625-30.035156 30.035156v23.503906c0 2.824219 2.289062 5.117188 5.113281 5.117188h20.234375c-2.824219 0-5.117188-2.289063-5.117188-5.117188zm0 0" fill="#ee5253"/><path d="m251.402344 417.792969c0 15.484375-12.554688 28.035156-28.035156 28.035156-15.484376 0-28.035157-12.550781-28.035157-28.035156s12.550781-28.035157 28.035157-28.035157c15.480468 0 28.035156 12.550782 28.035156 28.035157zm0 0" fill="#ffcdbf"/><g fill="#ffbeab"><path d="m225.726562 213.277344c0-9.878906 5.117188-18.558594 12.839844-23.554688-4.382812-2.832031-9.597656-4.480468-15.199218-4.480468-15.484376 0-28.035157 12.550781-28.035157 28.035156 0 15.480468 12.550781 28.035156 28.035157 28.035156 5.601562 0 10.816406-1.652344 15.199218-4.484375-7.722656-4.992187-12.839844-13.671875-12.839844-23.550781zm0 0"/><path d="m394.894531 306.855469c0-9.878907 5.113281-18.558594 12.835938-23.554688-4.382813-2.832031-9.597657-4.480469-15.199219-4.480469-15.484375 0-28.035156 12.550782-28.035156 28.035157 0 15.480469 12.550781 28.03125 28.035156 28.03125 5.601562 0 10.816406-1.648438 15.199219-4.480469-7.722657-4.992188-12.835938-13.671875-12.835938-23.550781zm0 0"/><path d="m56.5625 306.855469c0-9.878907 5.117188-18.558594 12.839844-23.554688-4.382813-2.832031-9.597656-4.480469-15.199219-4.480469-15.484375 0-28.035156 12.550782-28.035156 28.035157 0 15.480469 12.550781 28.03125 28.035156 28.03125 5.601563 0 10.816406-1.648438 15.199219-4.480469-7.722656-4.992188-12.839844-13.671875-12.839844-23.550781zm0 0"/><path d="m394.894531 130.328125c0-9.878906 5.113281-18.558594 12.835938-23.550781-4.382813-2.832032-9.597657-4.480469-15.199219-4.480469-15.484375 0-28.035156 12.550781-28.035156 28.03125 0 15.484375 12.550781 28.035156 28.035156 28.035156 5.601562 0 10.816406-1.652343 15.199219-4.480469-7.722657-4.996093-12.835938-13.675781-12.835938-23.554687zm0 0"/><path d="m56.5625 130.328125c0-9.878906 5.117188-18.558594 12.839844-23.550781-4.382813-2.832032-9.597656-4.480469-15.199219-4.480469-15.484375 0-28.035156 12.550781-28.035156 28.03125 0 15.484375 12.550781 28.035156 28.035156 28.035156 5.601563 0 10.816406-1.652343 15.199219-4.480469-7.722656-4.996093-12.839844-13.675781-12.839844-23.554687zm0 0"/><path d="m225.726562 29.789062c0-9.878906 5.117188-18.558593 12.839844-23.554687-4.382812-2.832031-9.597656-4.480469-15.199218-4.480469-15.484376 0-28.035157 12.550782-28.035157 28.035156 0 15.480469 12.550781 28.035157 28.035157 28.035157 5.601562 0 10.816406-1.652344 15.199218-4.484375-7.722656-4.992188-12.839844-13.671875-12.839844-23.550782zm0 0"/><path d="m225.726562 417.792969c0-9.878907 5.117188-18.558594 12.839844-23.550781-4.382812-2.835938-9.597656-4.484376-15.199218-4.484376-15.484376 0-28.035157 12.550782-28.035157 28.035157 0 15.480469 12.550781 28.035156 28.035157 28.035156 5.601562 0 10.816406-1.652344 15.199218-4.484375-7.722656-4.992188-12.839844-13.671875-12.839844-23.550781zm0 0"/></g><path d="m239.230469 445.828125h-31.730469c-16.519531 0-30.035156 13.515625-30.035156 30.035156v23.503907c0 2.828124 2.289062 5.117187 5.113281 5.117187h81.574219c2.824218 0 5.117187-2.289063 5.117187-5.117187v-23.503907c0-16.519531-13.515625-30.035156-30.039062-30.035156zm0 0" fill="#ff6b6b"/><path d="m197.695312 499.367188v-23.503907c0-16.519531 13.515626-30.035156 30.039063-30.035156h-20.234375c-16.519531 0-30.035156 13.515625-30.035156 30.035156v23.503907c0 2.828124 2.289062 5.117187 5.113281 5.117187h20.234375c-2.824219 0-5.117188-2.289063-5.117188-5.117187zm0 0" fill="#ee5253"/><path d="m169.664062 271.273438v34.800781c0 7.003906 5.699219 12.703125 12.703126 12.703125h81.574218c7.003906 0 12.703125-5.699219 12.703125-12.703125v-34.800781c0-16.613282-10.828125-30.734376-25.792969-35.707032 4.953126-6.117187 7.925782-13.898437 7.925782-22.363281 0-19.640625-15.980469-35.621094-35.621094-35.621094-19.644531 0-35.625 15.980469-35.625 35.621094 0 8.464844 2.972656 16.246094 7.925781 22.363281-14.964843 4.972656-25.792969 19.097656-25.792969 35.707032zm53.488282-78.515626c11.277344 0 20.449218 9.171876 20.449218 20.445313 0 11.226563-9.117187 20.449219-20.464843 20.449219-11.265625-.011719-20.429688-9.179688-20.429688-20.449219 0-11.273437 9.171875-20.445313 20.445313-20.445313zm-38.316406 78.515626c0-12.378907 10.074218-22.449219 22.453124-22.449219h31.730469c12.378907 0 22.449219 10.070312 22.449219 22.449219v32.328124h-7.917969v-33.402343c0-4.191407-3.398437-7.589844-7.589843-7.589844-4.191407 0-7.585938 3.398437-7.585938 7.589844v33.402343h-30.445312v-33.402343c0-4.191407-3.394532-7.589844-7.585938-7.589844s-7.585938 3.398437-7.585938 7.589844v33.402343h-7.921874zm0 0"/><path d="m169.664062 87.785156v23.507813c0 7.003906 5.699219 12.703125 12.703126 12.703125h81.574218c7.003906 0 12.703125-5.699219 12.703125-12.703125v-23.507813c0-16.609375-10.828125-30.734375-25.792969-35.707031 4.949219-6.117187 7.925782-13.898437 7.925782-22.363281 0-11.058594-5.015625-21.308594-13.757813-28.113282-3.308593-2.574218-8.074219-1.984374-10.648437 1.324219-2.574219 3.308594-1.980469 8.074219 1.324218 10.648438 5.027344 3.910156 7.90625 9.796875 7.90625 16.140625 0 11.257812-9.148437 20.449218-20.457031 20.449218-11.269531-.003906-20.4375-9.175781-20.4375-20.449218 0-5.980469 2.613281-11.644532 7.175781-15.542969 3.183594-2.722656 3.558594-7.511719.835938-10.699219-2.722656-3.183594-7.511719-3.5585935-10.699219-.835937-7.933593 6.785156-12.488281 16.65625-12.488281 27.078125 0 8.464844 2.972656 16.246094 7.925781 22.367187-14.964843 4.96875-25.792969 19.09375-25.792969 35.703125zm15.171876 0c0-12.378906 10.074218-22.449218 22.453124-22.449218.503907 0 16.359376 0 15.863282 0h15.867187c12.378907 0 22.449219 10.070312 22.449219 22.449218v21.035156h-7.917969v-22.113281c0-4.1875-3.394531-7.585937-7.585937-7.585937s-7.589844 3.398437-7.589844 7.585937v22.113281h-30.445312v-22.113281c0-4.1875-3.394532-7.585937-7.585938-7.585937s-7.585938 3.398437-7.585938 7.585937v22.113281h-7.921874zm0 0"/><path d="m338.828125 188.328125v23.503906c0 7.003907 5.699219 12.703125 12.703125 12.703125h81.574219c7.003906 0 12.703125-5.699218 12.703125-12.703125v-23.503906c0-16.613281-10.824219-30.734375-25.789063-35.707031 4.949219-6.121094 7.921875-13.898438 7.921875-22.363282 0-19.644531-15.980468-35.621093-35.621094-35.621093-19.640624 0-35.621093 15.980469-35.621093 35.621093 0 8.464844 2.972656 16.242188 7.921875 22.363282-14.964844 4.972656-25.792969 19.09375-25.792969 35.707031zm53.492187-78.519531c11.273438 0 20.445313 9.171875 20.445313 20.449218 0 11.273438-9.171875 20.445313-20.445313 20.445313-11.277343 0-20.449218-9.171875-20.449218-20.445313 0-11.277343 9.171875-20.449218 20.449218-20.449218zm-38.316406 78.519531c0-12.378906 10.070313-22.449219 22.449219-22.449219h31.730469c12.378906 0 22.449218 10.070313 22.449218 22.449219v21.035156h-7.917968v-22.113281c0-4.1875-3.394532-7.585938-7.585938-7.585938s-7.589844 3.398438-7.589844 7.585938v22.113281h-30.445312v-22.113281c0-4.1875-3.394531-7.585938-7.585938-7.585938-4.191406 0-7.585937 3.398438-7.585937 7.585938v22.113281h-7.921875v-21.035156zm0 0"/><path d="m.5 188.328125v23.503906c0 7.003907 5.699219 12.703125 12.703125 12.703125h81.574219c7.003906 0 12.703125-5.699218 12.703125-12.703125v-23.503906c0-16.613281-10.828125-30.734375-25.792969-35.707031 4.949219-6.121094 7.925781-13.898438 7.925781-22.363282 0-19.644531-15.980469-35.621093-35.621093-35.621093-19.644532 0-35.625 15.980469-35.625 35.621093 0 8.464844 2.972656 16.246094 7.925781 22.363282-14.96875 4.972656-25.792969 19.09375-25.792969 35.707031zm53.488281-78.519531c11.277344 0 20.449219 9.171875 20.449219 20.449218 0 11.273438-9.171875 20.445313-20.449219 20.445313-11.273437 0-20.445312-9.171875-20.445312-20.445313 0-11.277343 9.171875-20.449218 20.445312-20.449218zm-38.316406 78.519531c0-12.378906 10.074219-22.449219 22.453125-22.449219h31.730469c12.378906 0 22.449219 10.070313 22.449219 22.449219v21.035156h-7.917969v-22.113281c0-4.1875-3.398438-7.585938-7.589844-7.585938s-7.585937 3.398438-7.585937 7.585938v22.113281h-30.445313v-22.113281c0-4.1875-3.394531-7.585938-7.585937-7.585938-4.191407 0-7.585938 3.398438-7.585938 7.585938v22.113281h-7.921875zm0 0"/><path d="m338.828125 388.355469c0 7.007812 5.699219 12.707031 12.703125 12.707031h81.574219c7.003906 0 12.703125-5.699219 12.703125-12.707031v-23.503907c0-16.613281-10.824219-30.734374-25.789063-35.707031 4.949219-6.121093 7.921875-13.898437 7.921875-22.363281 0-19.640625-15.980468-35.621094-35.621094-35.621094-19.640624 0-35.621093 15.980469-35.621093 35.621094 0 8.464844 2.972656 16.242188 7.921875 22.363281-14.964844 4.972657-25.792969 19.09375-25.792969 35.707031zm53.492187-102.023438c11.273438 0 20.445313 9.171875 20.445313 20.449219 0 11.273438-9.171875 20.445312-20.445313 20.445312-11.277343 0-20.449218-9.171874-20.449218-20.445312 0-11.277344 9.171875-20.449219 20.449218-20.449219zm-38.316406 78.519531c0-12.378906 10.070313-22.449218 22.449219-22.449218h31.730469c12.378906 0 22.449218 10.070312 22.449218 22.449218v21.035157h-7.917968v-22.113281c0-4.191407-3.394532-7.585938-7.585938-7.585938s-7.589844 3.394531-7.589844 7.585938v22.113281h-30.445312v-22.113281c0-4.191407-3.394531-7.585938-7.585938-7.585938-4.191406 0-7.585937 3.394531-7.585937 7.585938v22.113281h-7.921875v-21.035157zm0 0"/><path d="m.5 388.355469c0 7.007812 5.699219 12.707031 12.703125 12.707031h81.574219c7.003906 0 12.703125-5.699219 12.703125-12.707031v-23.503907c0-16.613281-10.828125-30.734374-25.792969-35.707031 4.949219-6.121093 7.925781-13.898437 7.925781-22.363281 0-19.640625-15.980469-35.621094-35.621093-35.621094-19.644532 0-35.625 15.980469-35.625 35.621094 0 8.464844 2.972656 16.242188 7.925781 22.363281-14.964844 4.972657-25.792969 19.09375-25.792969 35.707031zm53.488281-102.023438c11.277344 0 20.449219 9.171875 20.449219 20.449219 0 11.273438-9.171875 20.445312-20.449219 20.445312-11.273437 0-20.445312-9.171874-20.445312-20.445312 0-11.277344 9.171875-20.449219 20.445312-20.449219zm-38.316406 78.519531c0-12.378906 10.074219-22.449218 22.453125-22.449218h31.730469c12.378906 0 22.449219 10.070312 22.449219 22.449218v21.035157h-7.917969v-22.113281c0-4.191407-3.398438-7.585938-7.589844-7.585938s-7.585937 3.394531-7.585937 7.585938v22.113281h-30.445313v-22.113281c0-4.191407-3.394531-7.585938-7.585937-7.585938-4.191407 0-7.585938 3.394531-7.585938 7.585938v22.113281h-7.921875zm0 0"/><path d="m114.816406 315.59375c2.097656 3.632812 6.738282 4.871094 10.363282 2.777344l13.722656-7.921875c17.039062 24.929687 44.84375 41.949219 76.664062 44.296875v15.8125c0 4.191406 3.398438 7.585937 7.585938 7.585937 4.191406 0 7.589844-3.394531 7.589844-7.585937v-15.832032c31.519531-2.335937 59.527343-19.113281 76.695312-44.257812l13.691406 7.902344c3.625 2.09375 8.265625.855468 10.363282-2.777344 2.09375-3.628906.851562-8.265625-2.777344-10.363281l-13.667969-7.890625c3.78125-7.851563 6.605469-16.285156 8.292969-25.175782.78125-4.117187-1.921875-8.085937-6.039063-8.867187-4.117187-.78125-8.085937 1.921875-8.867187 6.039063-7.667969 40.410156-43.230469 70.519531-85.28125 70.519531-47.867188 0-86.808594-38.941407-86.808594-86.808594s38.941406-86.8125 86.808594-86.8125c31.625 0 59.894531 17.101563 75.078125 43.207031.035156.066406.066406.132813.105469.199219.023437.039063.050781.074219.074218.113281 4.726563 8.207032 8.179688 17.28125 10.023438 27.003906.78125 4.117188 4.75 6.824219 8.867187 6.039063 4.117188-.777344 6.820313-4.75 6.039063-8.867187-1.683594-8.890626-4.511719-17.324219-8.292969-25.175782l13.667969-7.890625c3.628906-2.097656 4.871094-6.738281 2.777344-10.363281-2.09375-3.632812-6.738282-4.871094-10.363282-2.777344l-13.691406 7.902344c-17.167969-25.144531-45.175781-41.921875-76.695312-44.257812v-15.832032c0-4.1875-3.394532-7.585937-7.585938-7.585937s-7.589844 3.398437-7.589844 7.585937v15.808594c-31.820312 2.351562-59.621094 19.371094-76.664062 44.300781l-13.722656-7.921875c-3.628907-2.09375-8.269532-.855468-10.363282 2.777344-2.09375 3.625-.851562 8.265625 2.777344 10.363281l13.699219 7.910157c-13.480469 27.851562-13.527344 60.597656 0 88.550781l-13.699219 7.910156c-3.628906 2.09375-4.875 6.734375-2.777344 10.359375zm0 0"/><path d="m169.664062 475.792969v23.5c0 7.007812 5.699219 12.707031 12.703126 12.707031h81.574218c7.003906 0 12.703125-5.699219 12.703125-12.707031v-23.5c0-16.613281-10.828125-30.738281-25.792969-35.710938 4.949219-6.117187 7.925782-13.898437 7.925782-22.363281 0-19.640625-15.980469-35.621094-35.621094-35.621094-19.644531 0-35.625 15.980469-35.625 35.621094 0 8.464844 2.972656 16.246094 7.925781 22.363281-14.964843 4.972657-25.792969 19.097657-25.792969 35.710938zm53.488282-78.523438c11.277344 0 20.449218 9.175781 20.449218 20.449219 0 11.277344-9.171874 20.449219-20.449218 20.449219-11.273438 0-20.445313-9.171875-20.445313-20.449219 0-11.273438 9.171875-20.449219 20.445313-20.449219zm-38.316406 78.523438c0-12.378907 10.074218-22.453125 22.453124-22.453125h31.730469c12.378907 0 22.449219 10.074218 22.449219 22.453125v21.03125h-7.917969v-22.109375c0-4.191406-3.398437-7.589844-7.589843-7.589844-4.191407 0-7.585938 3.398438-7.585938 7.589844v22.109375h-30.445312v-22.109375c0-4.191406-3.394532-7.589844-7.585938-7.589844s-7.585938 3.398438-7.585938 7.589844v22.109375h-7.921874zm0 0"/></svg>